<svg width="70" height="20" viewBox="0 0 70 20" fill="none" xmlns="http://www.w3.org/2000/svg">
<path d="M9.76622e-05 14.65V0.249993H8.66675V2.65662H2.40673V6.24668H7.46675V8.65331H2.40673V14.65H9.76622e-05ZM9.6701 14.65V0.249993H12.0767V14.65H9.6701ZM21.5501 14.65V9.44665C21.5501 9.11219 21.5259 8.7383 21.4776 8.32496C21.4293 7.91162 21.3212 7.51301 21.1534 7.12912C20.9857 6.74523 20.7334 6.42996 20.3968 6.18329C20.0601 5.93663 19.6034 5.81329 19.0268 5.81329C18.7223 5.81329 18.4203 5.86302 18.1209 5.96246C17.8215 6.06191 17.5506 6.23247 17.3084 6.47414C17.0662 6.71581 16.8714 7.04943 16.7242 7.47498C16.577 7.90054 16.5034 8.44221 16.5034 9.09999L15.0734 8.48667C15.0734 7.56999 15.2517 6.73749 15.6084 5.98916C15.9651 5.24082 16.4895 4.6461 17.1817 4.20499C17.874 3.76388 18.7279 3.54333 19.7434 3.54333C20.5401 3.54333 21.1987 3.67555 21.7192 3.93999C22.2398 4.20443 22.6534 4.54415 22.9601 4.95915C23.2667 5.37415 23.4934 5.81526 23.6401 6.28248C23.7867 6.7497 23.8817 7.19192 23.9251 7.60915C23.9684 8.02637 23.9901 8.36332 23.9901 8.62V14.65H21.5501ZM14.0634 14.65V3.84999H16.2101V7.19997H16.5034V14.65H14.0634ZM29.7634 14.9467C28.4268 14.9467 27.3426 14.6472 26.5109 14.0483C25.6793 13.4494 25.1723 12.6056 24.9901 11.5167L27.4501 11.14C27.5745 11.6733 27.8545 12.0928 28.2901 12.3984C28.7256 12.7039 29.2734 12.8567 29.9334 12.8567C30.5079 12.8567 30.9543 12.7425 31.2726 12.5142C31.591 12.2858 31.7501 11.97 31.7501 11.5667C31.7501 11.3233 31.6912 11.1267 31.5735 10.9767C31.4557 10.8267 31.2007 10.6817 30.8084 10.5416C30.4162 10.4016 29.8134 10.2233 29.0001 10.0066C28.0957 9.77109 27.3765 9.5147 26.8426 9.23748C26.3087 8.96026 25.9254 8.63165 25.6926 8.25165C25.4598 7.87165 25.3434 7.41109 25.3434 6.86998C25.3434 6.19665 25.519 5.61082 25.8701 5.11249C26.2212 4.61416 26.7148 4.22916 27.3509 3.95749C27.987 3.68583 28.7345 3.54999 29.5934 3.54999C30.4312 3.54999 31.1754 3.68027 31.8259 3.94083C32.4765 4.20138 33.0023 4.57083 33.4034 5.04916C33.8045 5.52749 34.049 6.08999 34.1368 6.73666L31.6768 7.17999C31.6168 6.72109 31.4082 6.35803 31.0509 6.0908C30.6937 5.82358 30.2212 5.6733 29.6334 5.63996C29.0667 5.60996 28.6095 5.69608 28.2617 5.8983C27.914 6.10053 27.7401 6.38331 27.7401 6.74665C27.7401 6.95888 27.8103 7.13805 27.9509 7.28416C28.0915 7.43027 28.3726 7.57555 28.7942 7.72C29.2159 7.86445 29.8478 8.04334 30.6901 8.25667C31.5534 8.48 32.2423 8.73306 32.7567 9.01584C33.2712 9.29861 33.6431 9.63639 33.8726 10.0292C34.102 10.4219 34.2168 10.8978 34.2168 11.4567C34.2168 12.5422 33.8223 13.3953 33.0334 14.0158C32.2445 14.6364 31.1545 14.9467 29.7634 14.9467ZM35.6201 2.21331V-4.76837e-07H38.0267V2.21331H35.6201ZM35.6201 14.65V3.84999H38.0267V14.65H35.6201ZM44.5668 19.75C43.969 19.75 43.3956 19.6558 42.8468 19.4675C42.2979 19.2792 41.8029 19.01 41.3618 18.66C40.9206 18.31 40.559 17.89 40.2768 17.4L42.5001 16.3C42.7045 16.69 42.9959 16.9803 43.3742 17.1709C43.7526 17.3614 44.1556 17.4567 44.5834 17.4567C45.0834 17.4567 45.5287 17.3695 45.9193 17.195C46.3098 17.0206 46.6137 16.7611 46.8309 16.4167C47.0482 16.0722 47.1512 15.6444 47.1401 15.1333V12.0566H47.4368V3.84999H49.5501V15.1666C49.5501 15.4433 49.5392 15.7058 49.5176 15.9541C49.4959 16.2025 49.4567 16.4489 49.4001 16.6933C49.2379 17.3889 48.9312 17.9616 48.4801 18.4117C48.029 18.8617 47.4679 19.1972 46.7968 19.4183C46.1256 19.6394 45.3823 19.75 44.5668 19.75ZM44.3634 14.95C43.3656 14.95 42.4976 14.6997 41.7593 14.1992C41.0209 13.6986 40.4481 13.018 40.0409 12.1575C39.6337 11.2969 39.4301 10.3267 39.4301 9.24666C39.4301 8.15333 39.6359 7.17805 40.0476 6.32083C40.4593 5.46361 41.0409 4.78749 41.7926 4.29249C42.5443 3.79749 43.4312 3.54999 44.4534 3.54999C45.4768 3.54999 46.3376 3.79916 47.0359 4.29749C47.7343 4.79583 48.2629 5.47472 48.6217 6.33416C48.9806 7.1936 49.1601 8.16444 49.1601 9.24666C49.1601 10.3255 48.9795 11.2953 48.6184 12.1558C48.2573 13.0164 47.7212 13.6972 47.0101 14.1983C46.299 14.6994 45.4168 14.95 44.3634 14.95ZM44.7301 12.7934C45.3768 12.7934 45.899 12.6439 46.2968 12.345C46.6945 12.0461 46.984 11.6297 47.1651 11.0958C47.3462 10.5619 47.4368 9.94555 47.4368 9.24666C47.4368 8.54554 47.3459 7.92859 47.1643 7.39581C46.9826 6.86303 46.6984 6.4483 46.3118 6.15163C45.9251 5.85496 45.4256 5.70663 44.8134 5.70663C44.1645 5.70663 43.6306 5.86552 43.2117 6.1833C42.7928 6.50108 42.4828 6.92775 42.2817 7.46331C42.0806 7.99887 41.9801 8.59332 41.9801 9.24666C41.9801 9.90667 42.0789 10.505 42.2767 11.0417C42.4745 11.5783 42.7759 12.0045 43.1809 12.32C43.5859 12.6356 44.1023 12.7934 44.7301 12.7934ZM58.8201 14.65V9.44665C58.8201 9.11219 58.7959 8.7383 58.7476 8.32496C58.6993 7.91162 58.5912 7.51301 58.4234 7.12912C58.2556 6.74523 58.0034 6.42996 57.6668 6.18329C57.3301 5.93663 56.8734 5.81329 56.2968 5.81329C55.9923 5.81329 55.6903 5.86302 55.3909 5.96246C55.0915 6.06191 54.8206 6.23247 54.5784 6.47414C54.3362 6.71581 54.1414 7.04943 53.9942 7.47498C53.847 7.90054 53.7734 8.44221 53.7734 9.09999L52.3434 8.48667C52.3434 7.56999 52.5217 6.73749 52.8784 5.98916C53.2351 5.24082 53.7595 4.6461 54.4517 4.20499C55.144 3.76388 55.9979 3.54333 57.0134 3.54333C57.8101 3.54333 58.4687 3.67555 58.9892 3.93999C59.5098 4.20443 59.9234 4.54415 60.2301 4.95915C60.5367 5.37415 60.7634 5.81526 60.9101 6.28248C61.0567 6.7497 61.1517 7.19192 61.1951 7.60915C61.2384 8.02637 61.2601 8.36332 61.2601 8.62V14.65H58.8201ZM51.3334 14.65V0.249993H53.4801V7.83335H53.7734V14.65H51.3334ZM69.1901 14.65C68.4779 14.7867 67.7793 14.8455 67.0943 14.8267C66.4093 14.8078 65.7976 14.6811 65.2593 14.4467C64.7209 14.2122 64.3123 13.8378 64.0334 13.3233C63.7846 12.8533 63.6529 12.3756 63.6384 11.89C63.624 11.4045 63.6168 10.8533 63.6168 10.2367V0.849994H66.0234V10.1034C66.0234 10.5311 66.0284 10.9092 66.0384 11.2375C66.0484 11.5658 66.1167 11.8345 66.2434 12.0434C66.4834 12.44 66.8662 12.6614 67.3917 12.7075C67.9173 12.7536 68.5167 12.7289 69.1901 12.6334V14.65ZM61.6601 5.73997V3.84999H69.1901V5.73997H61.6601Z" fill="#00F5FF"/>
</svg>
